<svg width="335" height="66" viewBox="0 0 335 66" fill="none" xmlns="http://www.w3.org/2000/svg">
<g clip-path="url(#clip0)">
<path d="M25.2239 62.7999C24.7037 62.6508 23.2443 62.094 20.7269 60.6983C18.0069 59.1902 15.1375 57.2969 12.6472 55.3671C9.57962 52.9898 7.14371 50.6299 5.40716 48.353C3.5144 45.8712 2.55469 43.6201 2.55469 41.6621V3.94656C6.73947 3.47976 16.2034 2.55521 25.5092 2.55521C34.5477 2.55521 43.6283 3.46882 47.6917 3.93752C47.71 11.8024 47.7677 37.7365 47.7386 41.6431L47.7386 41.6487L47.7386 41.6542C47.7325 43.6176 46.7747 45.8728 44.8917 48.3572C43.1658 50.6343 40.7478 52.9936 37.7047 55.3695C35.2326 57.2997 32.3855 59.1925 29.6878 60.6992C27.1913 62.0935 25.7415 62.6504 25.2239 62.7999Z" fill="#304D63"/>
<path d="M25.5093 5.11006C17.7445 5.11006 9.85532 5.76405 5.1096 6.24426V41.6621C5.1096 48.2539 20.3438 58.2121 25.2203 60.1054C30.058 58.2077 45.1636 48.2444 45.184 41.6242C45.2107 38.011 45.1643 15.9119 45.1423 6.22843C40.554 5.75053 33.0058 5.11006 25.5093 5.11006ZM25.5093 0.000457764C37.9177 0.000457764 50.2412 1.67632 50.2412 1.67632C50.2412 1.67632 50.328 37.0051 50.2935 41.6621C50.2588 52.9242 28.0537 65.3845 25.2249 65.3845C22.3963 65.3845 0 52.9242 0 41.6621C0 35.5563 0 1.67632 0 1.67632C0 1.67632 12.8007 0.000457764 25.5093 0.000457764Z" fill="white"/>
<path d="M37.7464 42.982L26.2464 32.27L25.0234 53.781L23.7974 32.27L12.2974 42.982L22.0614 30.419L1.89844 29.111L22.0624 27.805L11.9274 15.054L23.7974 25.954L25.0234 4.44199L26.2494 25.954L38.3034 14.868L27.9844 27.805L48.1494 29.113L27.9844 30.419L37.7464 42.982Z" fill="white"/>
<path d="M300.141 62.611L299.899 60.53H291.799V49.238H293.138V59.338H298.219V49.238H299.558V59.338H301.058V62.613L300.141 62.611ZM131.841 62.611L131.599 60.53H123.679L123.437 62.611H122.501V59.336H123.643C123.802 59.0722 123.936 58.794 124.043 58.505C124.271 57.8967 124.449 57.271 124.575 56.634C124.753 55.822 124.911 54.8057 125.051 53.585C125.202 52.1411 125.272 50.6898 125.261 49.238H131.294V59.338H132.762V62.613L131.841 62.611ZM126.329 53.626C126.237 54.572 126.127 55.408 125.998 56.134C125.891 56.7685 125.746 57.3959 125.563 58.013C125.43 58.466 125.263 58.9083 125.063 59.336H129.951V50.436H126.514C126.482 51.6167 126.421 52.68 126.329 53.626ZM267.663 60.602C267.275 60.5394 266.894 60.4389 266.526 60.302L266.865 59.108C267.199 59.2489 267.548 59.3496 267.905 59.408C268.441 59.498 268.983 59.5395 269.526 59.532C269.859 59.5322 270.19 59.4861 270.51 59.395C270.821 59.3092 271.114 59.1669 271.373 58.975C271.625 58.788 271.834 58.5494 271.986 58.275C272.149 57.9673 272.229 57.6229 272.22 57.275C272.242 56.9861 272.187 56.6966 272.063 56.435C271.938 56.1734 271.748 55.9487 271.51 55.783C270.951 55.4388 270.312 55.2468 269.655 55.226C269.526 55.2153 269.405 55.2073 269.292 55.202C269.18 55.1967 269.064 55.194 268.945 55.194H268.058V54.062H268.671C268.811 54.062 268.954 54.0567 269.099 54.046C269.245 54.0353 269.384 54.0273 269.518 54.022C269.629 54.0197 269.74 54.0063 269.848 53.982C270.12 53.9414 270.385 53.8682 270.639 53.764C270.875 53.6675 271.093 53.5323 271.284 53.364C271.464 53.2055 271.612 53.0137 271.719 52.799C271.828 52.5783 271.883 52.335 271.88 52.089C271.89 51.7835 271.829 51.4799 271.702 51.202C271.59 50.9725 271.42 50.7756 271.21 50.63C270.991 50.4805 270.744 50.3762 270.484 50.323C270.195 50.2623 269.901 50.2325 269.605 50.234C269.108 50.2269 268.611 50.2674 268.121 50.355C267.782 50.4145 267.452 50.5153 267.137 50.655L266.783 49.593C267.154 49.424 267.544 49.302 267.944 49.23C268.565 49.1003 269.198 49.0383 269.832 49.045C270.258 49.0446 270.682 49.0905 271.098 49.182C271.493 49.2658 271.87 49.4188 272.211 49.634C272.543 49.8475 272.815 50.1417 273.002 50.489C273.214 50.9 273.317 51.3581 273.302 51.82C273.296 52.3773 273.109 52.9175 272.77 53.36C272.37 53.8809 271.806 54.253 271.17 54.417V54.482C271.853 54.5507 272.491 54.8526 272.977 55.337C273.435 55.8434 273.672 56.5105 273.638 57.192C273.653 57.7437 273.528 58.2902 273.275 58.781C273.043 59.2134 272.718 59.5891 272.323 59.881C271.916 60.178 271.456 60.3942 270.968 60.518C270.46 60.6515 269.937 60.7187 269.411 60.718C268.826 60.7286 268.242 60.6898 267.663 60.602V60.602ZM197.77 60.302C197.202 60.0289 196.71 59.6219 196.334 59.116C195.933 58.5648 195.646 57.9398 195.487 57.277C195.296 56.4916 195.204 55.6853 195.213 54.877C195.112 53.3401 195.533 51.8141 196.407 50.546C196.815 50.0443 197.337 49.6467 197.929 49.3857C198.52 49.1248 199.166 49.008 199.811 49.045C200.522 49.0271 201.228 49.1704 201.876 49.464C202.446 49.7344 202.941 50.1398 203.319 50.645C203.72 51.1964 204.008 51.8213 204.166 52.484C204.357 53.2694 204.449 54.0757 204.44 54.884C204.542 56.4219 204.119 57.9487 203.24 59.215C202.828 59.7189 202.303 60.1181 201.707 60.3802C201.111 60.6423 200.462 60.7598 199.812 60.723C199.109 60.7405 198.41 60.5972 197.77 60.304V60.302ZM197.48 51.374C196.837 52.4258 196.541 53.6528 196.633 54.882C196.63 55.4786 196.692 56.0738 196.818 56.657C196.927 57.1772 197.12 57.6759 197.391 58.133C197.637 58.5453 197.977 58.8934 198.383 59.149C198.813 59.4091 199.309 59.5406 199.811 59.528C200.267 59.5458 200.72 59.4515 201.131 59.2532C201.541 59.055 201.897 58.7589 202.166 58.391C202.814 57.3413 203.114 56.1133 203.021 54.883C203.023 54.2894 202.961 53.6973 202.836 53.117C202.728 52.5929 202.532 52.091 202.255 51.633C202.005 51.2216 201.663 50.8738 201.255 50.617C200.82 50.3556 200.319 50.2241 199.811 50.238C199.359 50.2215 198.911 50.3167 198.505 50.5153C198.098 50.7138 197.748 51.0094 197.483 51.376L197.48 51.374ZM140.322 60.374C139.732 60.1442 139.202 59.7826 138.773 59.317C138.302 58.7922 137.945 58.1751 137.725 57.505C137.45 56.6591 137.32 55.7732 137.338 54.884C137.315 53.97 137.46 53.0595 137.766 52.198C138.012 51.5232 138.396 50.9076 138.895 50.391C139.338 49.9394 139.875 49.5899 140.467 49.367C141.035 49.1547 141.635 49.0456 142.241 49.045C142.77 49.0352 143.299 49.0686 143.822 49.145C144.181 49.2013 144.532 49.2958 144.87 49.427L144.547 50.621C143.849 50.3282 143.094 50.196 142.337 50.234C141.891 50.2352 141.448 50.3172 141.031 50.476C140.59 50.6447 140.194 50.9154 139.877 51.266C139.509 51.683 139.232 52.172 139.063 52.702C138.842 53.4059 138.738 54.1414 138.756 54.879C138.743 55.5675 138.841 56.2536 139.046 56.911C139.213 57.4436 139.485 57.9373 139.846 58.363C140.172 58.7409 140.581 59.0389 141.04 59.234C141.513 59.4304 142.02 59.5291 142.532 59.524C142.959 59.5308 143.384 59.4821 143.798 59.379C144.118 59.2989 144.425 59.174 144.709 59.008L145.032 60.056C144.669 60.3207 144.249 60.4973 143.806 60.572C143.285 60.6712 142.756 60.7198 142.225 60.717C141.575 60.7237 140.93 60.6081 140.322 60.376V60.374ZM82.9712 60.301C82.4035 60.0279 81.9107 59.6209 81.5352 59.115C81.1331 58.5651 80.8435 57.9411 80.6832 57.279C80.492 56.4936 80.3999 55.6873 80.4092 54.879C80.3085 53.3421 80.7291 51.8162 81.6032 50.548C82.0116 50.0454 82.5335 49.647 83.126 49.3857C83.7186 49.1244 84.3647 49.0076 85.0112 49.045C85.7223 49.0271 86.4283 49.1704 87.0762 49.464C87.6461 49.7344 88.1414 50.1398 88.5192 50.645C88.9197 51.1964 89.2075 51.8213 89.3662 52.484C89.5573 53.2694 89.6493 54.0757 89.6402 54.884C89.7418 56.4219 89.3188 57.9487 88.4402 59.215C88.0282 59.7189 87.5029 60.1181 86.9071 60.3802C86.3113 60.6423 85.662 60.7598 85.0122 60.723C84.3085 60.7405 83.6101 60.5972 82.9702 60.304L82.9712 60.301ZM82.6832 51.376C82.0405 52.4278 81.7442 53.6548 81.8362 54.884C81.833 55.4806 81.8951 56.0758 82.0212 56.659C82.1297 57.1792 82.3233 57.6779 82.5942 58.135C82.84 58.5472 83.18 58.8954 83.5862 59.151C84.0162 59.4111 84.5118 59.5426 85.0142 59.53C85.4698 59.5478 85.9229 59.4535 86.3335 59.2552C86.7441 59.057 87.0998 58.7609 87.3692 58.393C88.0175 57.3433 88.3168 56.1153 88.2242 54.885C88.2263 54.2914 88.1643 53.6993 88.0392 53.119C87.9314 52.5949 87.7349 52.093 87.4582 51.635C87.2078 51.2237 86.8655 50.8759 86.4582 50.619C86.0228 50.3576 85.5218 50.2261 85.0142 50.24C84.5622 50.2228 84.1129 50.3175 83.7062 50.5156C83.2996 50.7138 82.9482 51.0094 82.6832 51.376V51.376ZM152.323 60.651C152.108 60.6457 151.879 60.635 151.637 60.619C151.395 60.603 151.153 60.5787 150.911 60.546C150.686 60.5171 150.462 60.474 150.242 60.417V49.238H151.583V53.626C151.636 53.616 151.728 53.602 151.857 53.586C151.986 53.57 152.126 53.557 152.276 53.546L152.744 53.514C152.906 53.5033 153.051 53.498 153.179 53.498C153.686 53.497 154.191 53.5483 154.687 53.651C155.154 53.7438 155.597 53.9273 155.993 54.191C156.382 54.4571 156.701 54.814 156.921 55.231C157.175 55.7439 157.297 56.3121 157.276 56.884C157.29 57.4616 157.174 58.0351 156.937 58.562C156.721 59.0221 156.401 59.4252 156.001 59.739C155.585 60.0601 155.109 60.2959 154.601 60.433C154.036 60.5878 153.453 60.6638 152.867 60.659C152.719 60.659 152.538 60.6563 152.323 60.651ZM152.646 54.675L152.227 54.707C152.097 54.7164 151.968 54.7325 151.84 54.755L151.582 54.803V59.403C151.795 59.4428 152.011 59.4672 152.227 59.476C152.507 59.492 152.782 59.5 153.05 59.5C153.419 59.5028 153.786 59.4513 154.139 59.347C154.467 59.2518 154.773 59.0928 155.039 58.879C155.298 58.6657 155.503 58.3953 155.639 58.089C155.79 57.7423 155.864 57.3671 155.857 56.989C155.871 56.5985 155.788 56.2106 155.615 55.86C155.466 55.5716 155.247 55.3249 154.978 55.142C154.702 54.9594 154.392 54.8333 154.067 54.771C153.716 54.7021 153.36 54.6686 153.002 54.671C152.904 54.6623 152.785 54.6633 152.645 54.674L152.646 54.675ZM319.127 60.53V55.61L317.465 55.965L314.658 60.53H313.077L315.593 56.513L316.577 55.819C316.203 55.7363 315.841 55.6017 315.504 55.419C315.181 55.2459 314.892 55.0166 314.649 54.742C314.402 54.4602 314.211 54.1346 314.084 53.782C313.944 53.3777 313.876 52.9518 313.884 52.524C313.865 51.96 313.978 51.3993 314.215 50.887C314.422 50.4672 314.731 50.1066 315.115 49.839C315.52 49.5653 315.975 49.3734 316.454 49.274C316.99 49.16 317.536 49.105 318.083 49.11C318.449 49.11 318.838 49.126 319.252 49.158C319.663 49.1898 320.07 49.2547 320.47 49.352V60.53H319.127ZM316.997 50.376C316.689 50.4401 316.396 50.5633 316.134 50.739C315.879 50.9164 315.673 51.1551 315.534 51.433C315.372 51.7762 315.294 52.1535 315.308 52.533C315.298 52.8945 315.373 53.2534 315.526 53.581C315.664 53.8628 315.866 54.1087 316.115 54.299C316.373 54.4921 316.666 54.6318 316.978 54.71C317.323 54.7982 317.678 54.8416 318.034 54.839H319.134V50.368C318.98 50.335 318.823 50.3106 318.666 50.295C318.505 50.279 318.29 50.271 318.021 50.271C317.677 50.2691 317.334 50.3043 316.997 50.376V50.376ZM285.656 60.53L284.5 57.4H280.359L279.236 60.53H277.897L282.172 49.061H282.785L287.076 60.53H285.656ZM282.029 52.836L280.793 56.236H284.099L282.847 52.8L282.447 51.09H282.431L282.029 52.836ZM251.96 60.53V55.352H246.54V60.53H245.201V49.238H246.54V54.158H251.96V49.238H253.299V60.53H251.96ZM239.06 60.53L237.905 57.4H233.764L232.641 60.53H231.302L235.571 49.061H236.184L240.475 60.53H239.06ZM235.433 52.836L234.197 56.236H237.503L236.251 52.8L235.851 51.09H235.835L235.433 52.836ZM222.183 60.53V49.238H228.232V50.432H223.522V60.532L222.183 60.53ZM209.94 60.53V49.351C210.375 49.2505 210.818 49.1859 211.263 49.158C211.737 49.126 212.203 49.11 212.663 49.11C213.169 49.111 213.674 49.1596 214.171 49.255C214.667 49.3449 215.141 49.5252 215.571 49.787C215.996 50.0511 216.348 50.4172 216.595 50.852C216.879 51.3817 217.017 51.9774 216.995 52.578C217.014 53.1801 216.887 53.7778 216.624 54.32C216.391 54.7762 216.054 55.1712 215.64 55.473C215.219 55.7744 214.744 55.9908 214.24 56.11C213.707 56.2399 213.16 56.3051 212.611 56.304H212.345C212.221 56.304 212.092 56.304 211.958 56.296C211.824 56.288 211.692 56.283 211.558 56.272C211.466 56.2657 211.374 56.2547 211.283 56.239V60.53H209.94ZM211.892 50.287C211.685 50.2908 211.48 50.318 211.279 50.368V55.045C211.363 55.0716 211.45 55.0851 211.537 55.085L211.908 55.101C212.037 55.107 212.16 55.109 212.279 55.109H212.537C212.903 55.1107 213.267 55.0772 213.626 55.009C213.972 54.9447 214.303 54.8161 214.602 54.63C214.9 54.4385 215.141 54.1714 215.302 53.856C215.493 53.4594 215.585 53.022 215.568 52.582C215.581 52.2 215.495 51.8211 215.318 51.482C215.159 51.1947 214.932 50.9508 214.657 50.772C214.373 50.5906 214.059 50.4622 213.729 50.393C213.39 50.3183 213.044 50.2804 212.697 50.28C212.421 50.274 212.153 50.2763 211.892 50.287V50.287ZM182.003 60.53L180.847 57.4H176.706L175.583 60.53H174.244L178.518 49.061H179.131L183.422 60.53H182.003ZM178.376 52.836L177.14 56.236H180.446L179.194 52.8L178.794 51.09H178.778L178.376 52.836ZM168.631 60.53L164.518 55.304H163.76V60.53H162.421V49.238H163.76V54.497L164.486 54.271L168.276 49.238H169.825L166.05 54.093L165.372 54.625L166.195 55.27L170.324 60.529L168.631 60.53ZM117.643 60.53L116.483 57.4H112.346L111.223 60.53H109.883L114.158 49.061H114.771L119.062 60.53H117.643ZM114.015 52.836L112.783 56.239H116.083L114.834 52.803L114.434 51.093H114.418L114.015 52.836ZM103.815 60.53V52.945L103.983 51.255H103.902L103.283 52.803L100.347 57.903H99.9472L96.8342 52.787L96.2542 51.255H96.1732L96.3992 52.933V60.533H95.1412V49.238H96.1412L99.6732 55.013L100.205 56.271H100.237L100.737 54.981L104.109 49.238H105.158V60.53H103.815ZM68.6352 60.53V49.351C69.0711 49.2503 69.5146 49.1858 69.9612 49.158C70.4345 49.126 70.9012 49.11 71.3612 49.11C71.8686 49.1108 72.3749 49.1593 72.8732 49.255C73.3686 49.3447 73.8432 49.5251 74.2732 49.787C74.698 50.0511 75.05 50.4172 75.2972 50.852C75.5813 51.3817 75.7193 51.9774 75.6972 52.578C75.7161 53.1801 75.5888 53.7778 75.3262 54.32C75.0932 54.7762 74.7561 55.1712 74.3422 55.473C73.9214 55.7744 73.4459 55.9907 72.9422 56.11C72.409 56.24 71.862 56.3051 71.3132 56.304H71.0472C70.9232 56.304 70.7942 56.304 70.6602 56.296C70.5262 56.288 70.3942 56.283 70.2602 56.272C70.1684 56.266 70.0769 56.2553 69.9862 56.24V60.531L68.6352 60.53ZM70.5902 50.287C70.3835 50.2909 70.1778 50.318 69.9772 50.368V55.045C70.0606 55.0716 70.1477 55.0851 70.2352 55.085L70.6062 55.101C70.7352 55.107 70.8582 55.109 70.9772 55.109H71.2352C71.6006 55.1107 71.9653 55.0772 72.3242 55.009C72.6703 54.9447 73.0014 54.8161 73.3002 54.63C73.5979 54.4385 73.8395 54.1714 74.0002 53.856C74.1914 53.4594 74.2827 53.022 74.2662 52.582C74.2786 52.2 74.1925 51.8211 74.0162 51.482C73.8575 51.1947 73.6305 50.9508 73.3552 50.772C73.0713 50.5906 72.7569 50.4622 72.4272 50.393C72.0883 50.3183 71.7423 50.2804 71.3952 50.28C71.1165 50.274 70.8482 50.2763 70.5902 50.287ZM58.2832 60.53V49.238H64.3322V50.432H59.6222V60.532L58.2832 60.53ZM306.416 60.53V49.238H307.755V60.528L306.416 60.53ZM259.573 60.53V49.238H260.912V60.528L259.573 60.53Z" fill="white"/>
<path d="M279.764 43.455H273.022C269.241 43.455 266.463 42.5763 264.689 40.819C262.915 39.0617 262.027 36.3113 262.027 32.568V14.234C262.027 10.2227 262.943 7.30999 264.776 5.49599C266.608 3.68199 269.55 2.77465 273.601 2.77399H294.434V10.874H275.916C273.601 10.874 272.444 12.026 272.444 14.33V32.763C272.415 33.1498 272.47 33.5383 272.605 33.9018C272.741 34.2653 272.953 34.5952 273.228 34.8688C273.503 35.1424 273.834 35.3533 274.198 35.4869C274.562 35.6206 274.951 35.6738 275.338 35.643H284.047C285.1 35.6449 286.146 35.4788 287.147 35.151H294.438V42.715C291.9 43.204 289.322 43.4518 286.738 43.455H279.764ZM311.794 43.281V10.874H299.642V2.77399H334.363V10.874H322.211V43.282L311.794 43.281ZM245.824 43.281V18.398L231.936 43.282H220.936V2.77399H231.353V27.657L245.246 2.77399H256.246V43.282L245.824 43.281ZM206.474 43.281L198.374 30.55L190.274 43.281H178.697L192.007 23.027L178.987 2.77399H190.503L198.373 15.505L206.185 2.77399H217.759L204.739 23.028L218.049 43.282L206.474 43.281ZM165.387 43.281V18.398L151.499 43.282H140.499V2.77399H150.921V27.657L164.809 2.77399H175.809V43.282L165.387 43.281ZM99.4168 43.281V2.77399H123.717C127.767 2.77399 130.709 3.69032 132.542 5.52299C134.374 7.35565 135.291 10.2973 135.291 14.348V20.134C135.291 24.1847 134.374 27.1263 132.542 28.959C130.709 30.7917 127.767 31.708 123.717 31.708H109.834V43.282L99.4168 43.281ZM109.834 23.606H121.408C123.722 23.606 124.88 22.4487 124.88 20.134V14.347C124.88 12.0323 123.722 10.875 121.408 10.875H109.834V23.606ZM82.0578 43.282V10.874H67.5908V43.282H57.1738V2.77399H92.4738V43.282H82.0578Z" fill="white"/>
</g>
<defs>
<clipPath id="clip0">
<rect width="334.363" height="65.384" fill="white"/>
</clipPath>
</defs>
</svg>
